<?xml version="1.0" encoding="UTF-8"?>
<!DOCTYPE svg PUBLIC "-//W3C//DTD SVG 1.1//EN" "http://www.w3.org/Graphics/SVG/1.1/DTD/svg11.dtd">
<!-- Creator: CorelDRAW X7 -->
<svg xmlns="http://www.w3.org/2000/svg" xml:space="preserve" width="3042px" height="979px" version="1.1" style="shape-rendering:geometricPrecision; text-rendering:geometricPrecision; image-rendering:optimizeQuality; fill-rule:evenodd; clip-rule:evenodd"
viewBox="0 0 30420 9790"
 xmlns:xlink="http://www.w3.org/1999/xlink">
 <defs>
  <style type="text/css">
   <![CDATA[
    .fil3 {fill:#8CBD49}
    .fil1 {fill:#5B5B5B;fill-rule:nonzero}
    .fil0 {fill:#5B5B5B;fill-rule:nonzero}
    .fil2 {fill:#EC792A;fill-rule:nonzero}
   ]]>
  </style>
 </defs>
 <g id="Layer_x0020_1">
  <metadata id="CorelCorpID_0Corel-Layer"/>
  <g id="_1091077024">
   <polygon class="fil0" points="4016,6007 4519,6007 4519,3783 4088,3783 3500,4057 3585,4447 4010,4245 4016,4245 "/>
   <path class="fil0" d="M11589 6006l0 -427 -839 0 0 -7 206 -171c322,-288 592,-586 592,-959 0,-403 -277,-698 -780,-698 -302,0 -562,103 -729,230l147 373c116,-89 284,-185 476,-185 256,0 366,144 366,325 -7,260 -243,510 -729,944l-288 261 0 314 1578 0z"/>
   <path class="fil0" d="M13559 5888c130,82 373,157 660,157 565,0 911,-287 911,-681 0,-291 -216,-493 -483,-541l0 -7c274,-95 407,-280 407,-516 0,-305 -263,-555 -739,-555 -287,0 -554,82 -688,168l106 376c93,-54 284,-133 466,-133 219,0 328,99 328,233 0,188 -222,253 -397,256l-202 0 0 373 213 0c229,0 448,100 448,319 0,167 -137,297 -407,297 -212,0 -425,-89 -517,-136l-106 390z"/>
   <path class="fil0" d="M21074 4098c192,0 271,137 271,274 0,140 -106,249 -226,284 -178,-55 -315,-151 -315,-302 0,-140 92,-256 270,-256zm11 1588c-195,0 -319,-151 -315,-312 0,-161 99,-284 270,-332 205,55 349,171 349,367 0,157 -120,277 -304,277zm-21 359c517,0 856,-270 856,-674 0,-288 -192,-472 -408,-555l0 -10c219,-109 322,-298 322,-489 0,-271 -216,-572 -736,-572 -445,0 -783,250 -783,627 0,195 106,376 321,486l0 10c-243,106 -397,291 -397,558 0,301 260,619 825,619z"/>
   <path class="fil0" d="M18432 3784l-1225 0 -148 1167c93,-14 178,-21 302,-21 445,0 626,141 626,370 0,236 -229,339 -445,339 -202,0 -404,-62 -503,-110l-92 390c123,65 349,127 619,127 599,0 955,-366 955,-780 0,-260 -103,-445 -271,-558 -157,-113 -373,-161 -585,-161 -55,0 -96,0 -144,7l48 -342 863 0 0 -428z"/>
   <polygon class="fil1" points="7270,6007 7773,6007 7773,3783 7342,3783 6754,4057 6839,4447 7263,4245 7270,4245 "/>
   <g>
    <polygon class="fil1" points="23712,6007 24215,6007 24215,3783 23784,3783 23195,4057 23281,4447 23705,4245 23712,4245 "/>
    <path class="fil1" d="M24668 5888c130,82 373,157 660,157 565,0 911,-287 911,-681 0,-291 -216,-493 -483,-541l0 -7c274,-95 407,-280 407,-516 0,-305 -263,-555 -739,-555 -287,0 -554,82 -688,168l106 376c93,-54 284,-133 466,-133 219,0 328,99 328,233 0,188 -222,253 -397,256l-202 0 0 373 213 0c229,0 448,100 448,319 0,167 -137,297 -407,297 -213,0 -425,-89 -517,-136l-106 390z"/>
   </g>
   <path class="fil1" d="M28206 6106c194,0 324,-141 324,-332 0,-198 -130,-335 -321,-335 -191,0 -324,141 -324,335 0,191 133,332 321,332z"/>
   <path class="fil1" d="M29151 6106c194,0 324,-141 324,-332 0,-198 -130,-335 -321,-335 -191,0 -324,141 -324,335 0,191 133,332 321,332z"/>
   <path class="fil0" d="M842 4139c209,0 315,260 315,753 0,506 -110,760 -312,760 -202,0 -325,-243 -321,-753 -4,-517 126,-760 318,-760zm7 -394c-575,0 -849,510 -849,1154 3,629 257,1146 832,1146 568,0 845,-472 845,-1160 0,-609 -233,-1140 -828,-1140z"/>
   <path class="fil1" d="M30096 6106c194,0 324,-141 324,-332 0,-198 -130,-335 -321,-335 -191,0 -324,141 -324,335 0,191 133,332 321,332z"/>
   <path class="fil2" d="M2597 7861c423,0 806,-157 1082,-410 273,-251 443,-597 443,-979l241 0c0,452 -199,861 -521,1156 -319,293 -759,475 -1245,475 -485,0 -926,-182 -1245,-475 -322,-295 -521,-704 -521,-1156l242 0c0,382 169,728 442,979 276,253 659,410 1082,410zm121 -337l0 -565 565 0 0 -242 -565 0 0 -565 -242 0 0 565 -565 0 0 242 565 0 0 565 242 0z"/>
   <path class="fil3" d="M7470 6472c-145,694 -416,1318 -717,1831 -540,919 -1294,1487 -2134,1487 -840,0 -1594,-568 -2134,-1487l-10 -19c22,1 43,1 65,1 110,0 219,-8 327,-25 468,729 1083,1173 1752,1173 711,0 1362,-502 1839,-1314 271,-462 521,-1022 659,-1647l353 0zm-3526 2149l1350 0 0 238 -1350 0 0 -238zm0 -453l1350 0 0 238 -1350 0 0 -238z"/>
   <path class="fil2" d="M9308 7861c423,0 805,-157 1081,-410 274,-251 443,-597 443,-979l242 0c0,452 -199,861 -521,1156 -320,293 -760,475 -1245,475 -486,0 -926,-182 -1246,-475 -322,-295 -521,-704 -521,-1156l242 0c0,382 169,728 443,979 276,253 658,410 1082,410zm120 -337l0 -565 565 0 0 -242 -565 0 0 -565 -241 0 0 565 -565 0 0 242 565 0 0 565 241 0z"/>
   <path class="fil2" d="M16078 7861c423,0 805,-157 1082,-410 273,-251 442,-597 442,-979l242 0c0,452 -199,861 -521,1156 -319,293 -760,475 -1245,475 -486,0 -926,-182 -1246,-475 -322,-295 -521,-704 -521,-1156l242 0c0,382 169,728 443,979 276,253 658,410 1082,410zm121 -337l0 -565 564 0 0 -242 -564 0 0 -565 -242 0 0 565 -565 0 0 242 565 0 0 565 242 0z"/>
   <path class="fil2" d="M23014 7861c424,0 806,-157 1082,-410 274,-251 443,-597 443,-979l242 0c0,452 -199,861 -521,1156 -320,293 -760,475 -1246,475 -485,0 -925,-182 -1245,-475 -322,-295 -521,-704 -521,-1156l242 0c0,382 169,728 443,979 276,253 658,410 1081,410zm121 -337l0 -565 565 0 0 -242 -565 0 0 -565 -241 0 0 565 -565 0 0 242 565 0 0 565 241 0z"/>
   <path class="fil2" d="M5886 1930c423,0 805,156 1082,410 273,251 442,597 442,978l242 0c0,-452 -199,-860 -521,-1156 -319,-293 -760,-474 -1245,-474 -486,0 -926,181 -1245,474 -322,296 -522,704 -522,1156l242 0c0,-381 169,-727 443,-978 276,-254 659,-410 1082,-410zm121 336l0 565 565 0 0 242 -565 0 0 565 -242 0 0 -565 -565 0 0 -242 565 0 0 -565 242 0z"/>
   <path class="fil2" d="M12593 1930c424,0 806,156 1082,410 274,251 443,597 443,978l242 0c0,-452 -199,-860 -521,-1156 -320,-293 -760,-474 -1246,-474 -485,0 -925,181 -1245,474 -322,296 -521,704 -521,1156l242 0c0,-381 169,-727 443,-978 276,-254 658,-410 1081,-410zm121 336l0 565 565 0 0 242 -565 0 0 565 -242 0 0 -565 -564 0 0 -242 564 0 0 -565 242 0z"/>
   <path class="fil2" d="M19452 1930c424,0 806,156 1082,410 274,251 443,597 443,978l242 0c0,-452 -199,-860 -521,-1156 -320,-293 -760,-474 -1246,-474 -485,0 -926,181 -1245,474 -322,296 -521,704 -521,1156l242 0c0,-381 169,-727 442,-978 277,-254 659,-410 1082,-410zm121 336l0 565 565 0 0 242 -565 0 0 565 -242 0 0 -565 -565 0 0 -242 565 0 0 -565 242 0z"/>
   <path class="fil2" d="M26228 1930c423,0 805,156 1081,410 274,251 443,597 443,978l242 0c0,-452 -199,-860 -521,-1156 -320,-293 -760,-474 -1245,-474 -486,0 -926,181 -1246,474 -322,296 -521,704 -521,1156l242 0c0,-381 169,-727 443,-978 276,-254 658,-410 1082,-410zm121 336l0 565 564 0 0 242 -564 0 0 565 -242 0 0 -565 -565 0 0 -242 565 0 0 -565 242 0z"/>
   <path class="fil3" d="M14240 6472c-145,694 -416,1318 -717,1831 -540,919 -1294,1487 -2134,1487 -840,0 -1594,-568 -2134,-1487l-10 -19c22,1 43,1 65,1 110,0 220,-8 327,-25 468,729 1083,1173 1752,1173 711,0 1362,-502 1839,-1314 271,-462 521,-1022 659,-1647l353 0zm-3526 2149l1350 0 0 238 -1350 0 0 -238zm0 -453l1350 0 0 238 -1350 0 0 -238z"/>
   <path class="fil3" d="M21154 6472c-146,694 -417,1318 -718,1831 -540,919 -1294,1487 -2134,1487 -840,0 -1594,-568 -2133,-1487l-11 -19c22,1 44,1 66,1 109,0 219,-8 326,-25 468,729 1083,1173 1752,1173 711,0 1362,-502 1839,-1314 271,-462 521,-1022 659,-1647l354 0zm-3527 2149l1350 0 0 238 -1350 0 0 -238zm0 -453l1350 0 0 238 -1350 0 0 -238z"/>
   <path class="fil3" d="M28372 6472c-330,1574 -1466,3318 -3274,3318 -840,0 -1594,-568 -2133,-1487l-11 -19c22,1 44,1 66,1 109,0 219,-8 326,-25 468,729 1083,1173 1752,1173 1599,0 2615,-1578 2920,-2961l354 0zm-3949 2149l1351 0 0 238 -1351 0 0 -238zm0 -453l1351 0 0 238 -1351 0 0 -238z"/>
   <path class="fil3" d="M10756 3318c-145,-694 -417,-1318 -718,-1830 -539,-919 -1293,-1488 -2133,-1488 -840,0 -1594,569 -2134,1488l-11 18c22,-1 44,-1 66,-1 110,0 219,9 327,26 467,-729 1083,-1174 1752,-1174 711,0 1362,503 1838,1315 272,461 522,1021 659,1646l354 0zm-3527 -2149l1351 0 0 -238 -1351 0 0 238zm0 453l1351 0 0 -238 -1351 0 0 238z"/>
   <path class="fil3" d="M17615 3318c-146,-694 -417,-1318 -718,-1830 -539,-919 -1293,-1488 -2133,-1488 -840,0 -1594,569 -2134,1488l-11 18c22,-1 44,-1 66,-1 110,0 219,9 327,26 467,-729 1083,-1174 1752,-1174 711,0 1361,503 1838,1315 271,461 522,1021 659,1646l354 0zm-3527 -2149l1351 0 0 -238 -1351 0 0 238zm0 453l1351 0 0 -238 -1351 0 0 238z"/>
   <path class="fil3" d="M24367 3318c-146,-694 -417,-1318 -718,-1830 -540,-919 -1294,-1488 -2134,-1488 -840,0 -1594,569 -2133,1488l-11 18c22,-1 44,-1 66,-1 110,0 219,9 326,26 468,-729 1083,-1174 1752,-1174 712,0 1362,503 1839,1315 271,461 521,1021 659,1646l354 0zm-3527 -2149l1351 0 0 -238 -1351 0 0 238zm0 453l1351 0 0 -238 -1351 0 0 238z"/>
  </g>
 </g>
</svg>
